<?xml version="1.0" standalone="no"?><!DOCTYPE svg PUBLIC "-//W3C//DTD SVG 1.1//EN" "http://www.w3.org/Graphics/SVG/1.1/DTD/svg11.dtd"><svg t="1541928774991" class="icon" style="" viewBox="0 0 1024 1024" version="1.1" xmlns="http://www.w3.org/2000/svg" p-id="2021" xmlns:xlink="http://www.w3.org/1999/xlink" width="200" height="200"><defs><style type="text/css"></style></defs><path d="M428.78547 428.78547m-428.78547 0a428.78547 428.78547 0 1 0 857.57094 0 428.78547 428.78547 0 1 0-857.57094 0Z" fill="#88C5CC" p-id="2022"></path><path d="M726.945466 599.234394c-27.710261-34.577528-83.124083-85.174214-122.860436-107.042273-54.924739-30.215976-115.879273-37.974313-175.29956-37.974313s-120.374821 7.758337-175.29956 37.981013c-39.729654 21.861359-95.150176 72.444645-122.860436 107.035573-26.979986 33.659659-52.459222 86.688362-52.459223 139.857761 0 154.409668 160.566759 284.860947 350.619219 284.860947s350.619219-130.451279 350.619219-284.860947c0-53.155999-25.485936-106.184702-52.459223-139.857761zM233.319594 164.010442c-8.756603 0-17.553405 1.607946-26.209512 4.810437-21.412474 7.912432-38.604092 24.882957-48.39246 47.755982-9.795068 22.866325-11.068025 49.075837-3.631277 73.804699 7.289353 24.139282 23.737296 42.684254 46.02074 52.988504 16.983924-29.941285 91.344705-117.051734 110.418958-129.633907-13.453144-34.758422-45.813048-49.725715-78.206449-49.725715z" fill="#242424" p-id="2023"></path><path d="M207.46517 319.411676c-6.076694-6.458581-10.585641-14.324115-13.312449-23.375508-5.634509-18.699066-4.703241-38.416498 2.612911-55.494219 6.860568-16.059356 18.59857-27.837557 33.043281-33.170576a48.68725 48.68725 0 0 1 16.923626-3.155593c9.667772 0 30.282974 2.003232 44.091206 17.459608-24.829359 24.588167-61.034932 67.406416-83.358575 97.736288z" fill="#B3B3B3" p-id="2024"></path><path d="M624.251346 164.010442c8.763303 0 17.553405 1.607946 26.209512 4.810437 21.412474 7.912432 38.610792 24.882957 48.39916 47.755982 9.788368 22.866325 11.061325 49.075837 3.624577 73.804699-7.289353 24.139282-23.737296 42.684254-46.02074 52.988504-16.977225-29.941285-91.338005-117.051734-110.412259-129.633907 13.446444-34.758422 45.806348-49.725715 78.19975-49.725715z" fill="#242424" p-id="2025"></path><path d="M650.10577 319.411676c-22.323644-30.316473-58.529217-73.148121-83.345176-97.736288 13.821632-15.469776 34.430133-17.452909 44.091206-17.452908 5.567511 0 11.275718 1.051864 16.937026 3.155593 14.417911 5.32632 26.155914 17.10452 33.023181 33.150476 7.322852 17.091121 8.234021 36.808553 2.626311 55.541118-2.753607 9.031294-7.255854 16.890128-13.332548 23.342009z" fill="#B3B3B3" p-id="2026"></path><path d="M654.065336 308.196256c-20.936791-30.148978-62.810372-74.253584-92.825355-93.314438-41.498394-26.350207-87.552633-33.110278-132.454511-33.110278s-90.949418 6.766771-132.454512 33.110278c-30.014983 19.060854-71.888564 63.16546-92.825354 93.314438-20.387409 29.358405-39.635857 75.586839-39.635857 121.929168 0 134.625238 121.312789 248.340485 264.915723 248.340485 143.602934 0 264.915723-113.735346 264.915723-248.340485 0-46.34233-19.248448-92.570763-39.635857-121.929168z" fill="#E6E6E6" p-id="2027"></path><path d="M248.507979 463.242402c-21.23828 0-34.966115-12.67597-34.966115-32.313005 0-39.287469 53.638382-115.906072 99.344233-115.906072 57.865939 0 95.01618 54.723746 96.557128 57.055266 2.472216 3.718374 3.349886 8.26752 2.398519 12.642472a16.468042 16.468042 0 0 1-7.36975 10.558842c-11.041226 6.940965-109.407293 67.962497-155.964015 67.962497z" fill="#242424" p-id="2028"></path><path d="M312.886097 413.958872a33.539063 33.539063 0 0 1-33.505564-33.505564 33.539063 33.539063 0 0 1 33.505564-33.492165 33.525664 33.525664 0 0 1 33.492165 33.492165 33.525664 33.525664 0 0 1-33.492165 33.505564z" fill="#F5F5F5" p-id="2029"></path><path d="M312.879398 393.859553c-7.38985 0-13.399546-6.002997-13.399546-13.399546s6.009696-13.399546 13.399546-13.399545a13.399546 13.399546 0 0 1 0 26.799091zM609.08976 463.242402c21.211481 0 34.952716-12.67597 34.952716-32.313005 0-39.287469-53.651782-115.906072-99.344234-115.906072-57.879339 0-95.002781 54.723746-96.557128 57.055266a16.407744 16.407744 0 0 0-2.405219 12.642472 16.488141 16.488141 0 0 0 7.369751 10.558842c11.034526 6.940965 109.413992 67.962497 155.984114 67.962497z" fill="#242424" p-id="2030"></path><path d="M544.698242 413.958872a33.552463 33.552463 0 0 0 33.505565-33.505564 33.552463 33.552463 0 0 0-33.505565-33.492165 33.518964 33.518964 0 0 0-33.492165 33.492165 33.518964 33.518964 0 0 0 33.492165 33.505564z" fill="#F5F5F5" p-id="2031"></path><path d="M544.704942 393.859553c7.38985 0 13.399546-6.002997 13.399546-13.399546s-6.009696-13.399546-13.399546-13.399545a13.399546 13.399546 0 0 0 0 26.799091zM445.065918 544.651344c32.045014-5.353119 49.531422-26.946487 64.760006-57.443854a16.508241 16.508241 0 0 0-0.90447-16.387645c-11.463312-17.7142-53.557985-24.132582-79.037221-24.132582h-2.197526c-25.479237 0-67.57391 6.418383-79.037222 24.132582a16.555139 16.555139 0 0 0-0.904469 16.387645c15.235284 30.497367 32.714991 52.090735 64.760006 57.443854H415.385924v20.976989l-44.895179 36.607559a13.399546 13.399546 0 0 0-1.916135 18.846462 13.399546 13.399546 0 0 0 18.846462 1.909435L428.78547 589.278531l41.364398 33.706558c2.485616 2.036731 5.480414 3.008198 8.468513 3.008198a13.386146 13.386146 0 0 0 8.481913-23.764095l-44.895179-36.607559v-20.976989h2.860803z" fill="#242424" p-id="2032"></path></svg>