<?xml version="1.0" standalone="no"?><!DOCTYPE svg PUBLIC "-//W3C//DTD SVG 1.1//EN" "http://www.w3.org/Graphics/SVG/1.1/DTD/svg11.dtd"><svg t="1541137574780" class="icon" style="" viewBox="0 0 1024 1024" version="1.1" xmlns="http://www.w3.org/2000/svg" p-id="2819" xmlns:xlink="http://www.w3.org/1999/xlink" width="200" height="200"><defs><style type="text/css"></style></defs><path d="M270.6 159h485.7c14.5 0 26.3 11.8 26.3 26.3v669.5c0 14.5-11.8 26.3-26.3 26.3H270.6c-14.5 0-26.3-11.8-26.3-26.3V185.3c0.1-14.5 11.8-26.3 26.3-26.3z" fill="#FFFFFF" p-id="2820"></path><path d="M730.1 881H296.9c-29 0-52.5-23.5-52.5-52.5v-617c0-29 23.6-52.5 52.5-52.5h433.2c29 0 52.5 23.5 52.5 52.5v617c0 29-23.6 52.5-52.5 52.5zM296.9 211.5v617h433.2v-617H296.9z" fill="#2F2F33" p-id="2821"></path><path d="M435.4 264h156.2c54.7 0 99.1 44.4 99.1 99.1v261.2c0 54.7-44.4 99.1-99.1 99.1H435.4c-54.7 0-99.1-44.4-99.1-99.1V363.1c0-54.7 44.3-99.1 99.1-99.1z" fill="#8CAAFF" p-id="2822"></path><path d="M638.2 723.5H388.8c-29 0-52.5-23.5-52.5-52.5V316.6c0-29 23.6-52.5 52.5-52.5h249.4c29 0 52.5 23.5 52.5 52.5V671c0 28.9-23.6 52.5-52.5 52.5z m-249.4-407V671h249.4V316.6H388.8zM480.7 749.7h65.6c14.5 0 26.3 11.8 26.3 26.3s-11.8 26.3-26.3 26.3h-65.6c-14.5 0-26.3-11.8-26.3-26.3s11.8-26.3 26.3-26.3z" fill="#2F2F33" p-id="2823"></path></svg>