<?xml version="1.0" standalone="no"?><!DOCTYPE svg PUBLIC "-//W3C//DTD SVG 1.1//EN" "http://www.w3.org/Graphics/SVG/1.1/DTD/svg11.dtd"><svg t="1541137140444" class="icon" style="" viewBox="0 0 1024 1024" version="1.1" xmlns="http://www.w3.org/2000/svg" p-id="2805" xmlns:xlink="http://www.w3.org/1999/xlink" width="200" height="200"><defs><style type="text/css"></style></defs><path d="M922.209 391.039v148.245l31.206 31.215-65.072 67.717-65.873-65.721 45.11-41.013v-117.04c-191.406 78.92-252.766 103.45-295.213 122.599-42.45 19.151-73.018 19.054-115.119 3.189-42.103-15.865-242.527-89.011-342.047-136.64-66.406-31.778-70.682-51.928 1.144-78.896 93.735-35.612 248.661-92.639 330.79-123.765 48.612-19.667 74.316-30.402 118.937-7.975 79.68 32.898 261.738 101.216 352.266 138.593 78.807 34.396 25.828 45.707 3.871 59.492zM581.596 595.722c46.287-19.098 108.7-50.678 176.753-79.833v234.076s-88.012 93.629-242.733 93.629c-166.625 0-256.626-93.629-256.626-93.629V531.481c52.52 21.4 111.506 39.812 182.881 64.24 43.992 15.654 99.815 21.065 139.726 0h-0.001z" p-id="2806" fill="#8CA8D1"></path></svg>